{
  "accessors": [
    {
      "bufferView": 2,
      "componentType": 5126,
      "count": 274,
      "max": [
        -0.31970000267028809,
        3.6073999404907227,
        16.979299545288086
      ],
      "min": [
        -1.5744999647140503,
        1.9586999416351318,
        14.234999656677246
      ],
      "type": "VEC3"
    },
    {
      "bufferView": 2,
      "byteOffset": 3288,
      "componentType": 5126,
      "count": 274,
      "max": [
        0.99989199638366699,
        0.99287909269332886,
        0.98100972175598145
      ],
      "min": [
        -0.99843901395797729,
        -0.99926304817199707,
        -0.9769207239151001
      ],
      "type": "VEC3"
    },
    {
      "bufferView": 3,
      "componentType": 5126,
      "count": 274,
      "max": [
        0.99919295310974121,
        0.9439740777015686,
        0.91877096891403198,
        1
      ],
      "min": [
        -0.99937963485717773,
        -0.97094112634658813,
        -0.90156185626983643,
        1
      ],
      "type": "VEC4"
    },
    {
      "bufferView": 1,
      "componentType": 5126,
      "count": 274,
      "max": [
        2.9906001091003418,
        0.98600000143051147
      ],
      "min": [
        2.0262000560760498,
        0.18580000102519989
      ],
      "type": "VEC2"
    },
    {
      "bufferView": 0,
      "componentType": 5125,
      "count": 1182,
      "max": [
        273
      ],
      "min": [
        0
      ],
      "type": "SCALAR"
    },
    {
      "bufferView": 2,
      "byteOffset": 6576,
      "componentType": 5126,
      "count": 56,
      "max": [
        -0.23199999332427979,
        0.024100000038743019,
        18.055999755859375
      ],
      "min": [
        -1.5982999801635742,
        -0.31319999694824219,
        17.798900604248047
      ],
      "type": "VEC3"
    },
    {
      "bufferView": 2,
      "byteOffset": 7248,
      "componentType": 5126,
      "count": 56,
      "max": [
        0.46127644181251526,
        0.55018609762191772,
        0.90621435642242432
      ],
      "min": [
        -0.33659574389457703,
        0.3169960081577301,
        0.80725878477096558
      ],
      "type": "VEC3"
    },
    {
      "bufferView": 3,
      "byteOffset": 4384,
      "componentType": 5126,
      "count": 56,
      "max": [
        -0.45251911878585815,
        0.63915622234344482,
        0.54081106185913086,
        1
      ],
      "min": [
        -0.95993322134017944,
        -0.70904862880706787,
        -0.4324055016040802,
        1
      ],
      "type": "VEC4"
    },
    {
      "bufferView": 1,
      "byteOffset": 2192,
      "componentType": 5126,
      "count": 56,
      "max": [
        4,
        -0.12999999523162842
      ],
      "min": [
        0,
        -1.1299999952316284
      ],
      "type": "VEC2"
    },
    {
      "bufferView": 0,
      "byteOffset": 4728,
      "componentType": 5125,
      "count": 84,
      "max": [
        55
      ],
      "min": [
        0
      ],
      "type": "SCALAR"
    },
    {
      "bufferView": 2,
      "byteOffset": 7920,
      "componentType": 5126,
      "count": 666,
      "max": [
        -4.0225000381469727,
        1.4350999593734741,
        23.808700561523438
      ],
      "min": [
        -6.383699893951416,
        -0.93800002336502075,
        21.432699203491211
      ],
      "type": "VEC3"
    },
    {
      "bufferView": 2,
      "byteOffset": 15912,
      "componentType": 5126,
      "count": 666,
      "max": [
        0.99885821342468262,
        0.9963420033454895,
        0.99779999256134033
      ],
      "min": [
        -0.998790442943573,
        -0.9963420033454895,
        -0.99778002500534058
      ],
      "type": "VEC3"
    },
    {
      "bufferView": 3,
      "byteOffset": 5280,
      "componentType": 5126,
      "count": 666,
      "max": [
        0.99802863597869873,
        0.99495208263397217,
        0.80713373422622681,
        1
      ],
      "min": [
        -0.9976048469543457,
        -0.95302176475524902,
        -0.99694567918777466,
        1
      ],
      "type": "VEC4"
    },
    {
      "bufferView": 1,
      "byteOffset": 2640,
      "componentType": 5126,
      "count": 666,
      "max": [
        0.97539997100830078,
        0.97539997100830078
      ],
      "min": [
        -0.97539997100830078,
        0.024599999189376831
      ],
      "type": "VEC2"
    },
    {
      "bufferView": 0,
      "byteOffset": 5064,
      "componentType": 5125,
      "count": 3024,
      "max": [
        665
      ],
      "min": [
        0
      ],
      "type": "SCALAR"
    },
    {
      "bufferView": 2,
      "byteOffset": 23904,
      "componentType": 5126,
      "count": 2534,
      "max": [
        5.2551999092102051,
        2.9472000598907471,
        22.498100280761719
      ],
      "min": [
        -5.8043999671936035,
        -6.3091001510620117,
        3.2569000720977783
      ],
      "type": "VEC3"
    },
    {
      "bufferView": 2,
      "byteOffset": 54312,
      "componentType": 5126,
      "count": 2534,
      "max": [
        0.99966758489608765,
        0.99959069490432739,
        0.99934691190719604
      ],
      "min": [
        -0.99964255094528198,
        -0.99665576219558716,
        -0.99576485157012939
      ],
      "type": "VEC3"
    },
    {
      "bufferView": 3,
      "byteOffset": 15936,
      "componentType": 5126,
      "count": 2534,
      "max": [
        0.99935108423233032,
        0.99930477142333984,
        0.97681999206542969,
        1
      ],
      "min": [
        -0.99942892789840698,
        -0.99931794404983521,
        -0.99949061870574951,
        -1
      ],
      "type": "VEC4"
    },
    {
      "bufferView": 1,
      "byteOffset": 7968,
      "componentType": 5126,
      "count": 2534,
      "max": [
        0.99449998140335083,
        1.9922000169754028
      ],
      "min": [
        0.0054999999701976776,
        1.0041999816894531
      ],
      "type": "VEC2"
    },
    {
      "bufferView": 0,
      "byteOffset": 17160,
      "componentType": 5125,
      "count": 13182,
      "max": [
        2533
      ],
      "min": [
        0
      ],
      "type": "SCALAR"
    },
    {
      "bufferView": 2,
      "byteOffset": 84720,
      "componentType": 5126,
      "count": 660,
      "max": [
        -0.48550000786781311,
        0.13660000264644623,
        17.238199234008789
      ],
      "min": [
        -1.5600999593734741,
        -0.69620001316070557,
        16.386699676513672
      ],
      "type": "VEC3"
    },
    {
      "bufferView": 2,
      "byteOffset": 92640,
      "componentType": 5126,
      "count": 660,
      "max": [
        1,
        0.99742627143859863,
        0.9934391975402832
      ],
      "min": [
        -0.99267667531967163,
        -0.99685209989547729,
        -0.99301892518997192
      ],
      "type": "VEC3"
    },
    {
      "bufferView": 3,
      "byteOffset": 56480,
      "componentType": 5126,
      "count": 660,
      "max": [
        0.99931716918945312,
        0.99403125047683716,
        0.98668831586837769,
        1
      ],
      "min": [
        -0.99861890077590942,
        -0.99689394235610962,
        -0.99369138479232788,
        -1
      ],
      "type": "VEC4"
    },
    {
      "bufferView": 1,
      "byteOffset": 28240,
      "componentType": 5126,
      "count": 660,
      "max": [
        1.9730000495910645,
        1.9847999811172485
      ],
      "min": [
        0.024599999189376831,
        -1.4845999479293823
      ],
      "type": "VEC2"
    },
    {
      "bufferView": 0,
      "byteOffset": 69888,
      "componentType": 5125,
      "count": 2604,
      "max": [
        659
      ],
      "min": [
        0
      ],
      "type": "SCALAR"
    },
    {
      "bufferView": 2,
      "byteOffset": 100560,
      "componentType": 5126,
      "count": 1150,
      "max": [
        0.34459999203681946,
        6.9418001174926758,
        6.6146998405456543
      ],
      "min": [
        -9.4582996368408203,
        -5.5511999130249023,
        -0.4496999979019165
      ],
      "type": "VEC3"
    },
    {
      "bufferView": 2,
      "byteOffset": 114360,
      "componentType": 5126,
      "count": 1150,
      "max": [
        1,
        0.99945563077926636,
        0.99696910381317139
      ],
      "min": [
        -0.99947220087051392,
        -0.99822819232940674,
        -0.9888189435005188
      ],
      "type": "VEC3"
    },
    {
      "bufferView": 3,
      "byteOffset": 67040,
      "componentType": 5126,
      "count": 1150,
      "max": [
        0.99867677688598633,
        0.99715572595596313,
        0.9981275200843811,
        1
      ],
      "min": [
        -0.98313266038894653,
        -0.99909740686416626,
        -0.99258172512054443,
        -1
      ],
      "type": "VEC4"
    },
    {
      "bufferView": 1,
      "byteOffset": 33520,
      "componentType": 5126,
      "count": 1150,
      "max": [
        3.974600076675415,
        0.98760002851486206
      ],
      "min": [
        3.0344998836517334,
        0.014899999834597111
      ],
      "type": "VEC2"
    },
    {
      "bufferView": 0,
      "byteOffset": 80304,
      "componentType": 5125,
      "count": 5088,
      "max": [
        1149
      ],
      "min": [
        0
      ],
      "type": "SCALAR"
    },
    {
      "bufferView": 2,
      "byteOffset": 128160,
      "componentType": 5126,
      "count": 1382,
      "max": [
        2.0478999614715576,
        5.4637999534606934,
        17.073200225830078
      ],
      "min": [
        -7.9123001098632812,
        -6.6978001594543457,
        1.0089999437332153
      ],
      "type": "VEC3"
    },
    {
      "bufferView": 2,
      "byteOffset": 144744,
      "componentType": 5126,
      "count": 1382,
      "max": [
        0.99670594930648804,
        0.99859440326690674,
        0.99936521053314209
      ],
      "min": [
        -0.99973541498184204,
        -0.99794226884841919,
        -0.99997031688690186
      ],
      "type": "VEC3"
    },
    {
      "bufferView": 3,
      "byteOffset": 85440,
      "componentType": 5126,
      "count": 1382,
      "max": [
        0.99805402755737305,
        0.99287688732147217,
        0.99870306253433228,
        1
      ],
      "min": [
        -0.99952906370162964,
        -0.98601430654525757,
        -0.99894046783447266,
        -1
      ],
      "type": "VEC4"
    },
    {
      "bufferView": 1,
      "byteOffset": 42720,
      "componentType": 5126,
      "count": 1382,
      "max": [
        0.99210000038146973,
        0.98259997367858887
      ],
      "min": [
        0.0074999998323619366,
        0.014200000092387199
      ],
      "type": "VEC2"
    },
    {
      "bufferView": 0,
      "byteOffset": 100656,
      "componentType": 5125,
      "count": 6036,
      "max": [
        1381
      ],
      "min": [
        0
      ],
      "type": "SCALAR"
    }
  ],
  "asset": {
    "extras": {
      "author": "DeShawn E. (https://sketchfab.com/TNeckDME)",
      "license": "CC-BY-4.0 (http://creativecommons.org/licenses/by/4.0/)",
      "source": "https://sketchfab.com/models/268888fd930a46dca8e3e62f2f743618",
      "title": "Volleyball"
    },
    "generator": "Sketchfab-3.19.1",
    "version": "2.0"
  },
  "bufferViews": [
    {
      "buffer": 0,
      "byteLength": 124800,
      "byteOffset": 0,
      "name": "floatBufferViews",
      "target": 34963
    },
    {
      "buffer": 0,
      "byteLength": 53776,
      "byteOffset": 124800,
      "byteStride": 8,
      "name": "floatBufferViews",
      "target": 34962
    },
    {
      "buffer": 0,
      "byteLength": 161328,
      "byteOffset": 178576,
      "byteStride": 12,
      "name": "floatBufferViews",
      "target": 34962
    },
    {
      "buffer": 0,
      "byteLength": 107552,
      "byteOffset": 339904,
      "byteStride": 16,
      "name": "floatBufferViews",
      "target": 34962
    }
  ],
  "buffers": [
    {
      "byteLength": 447456,
      "uri": "scene.bin"
    }
  ],
  "extensionsRequired": [
    "KHR_materials_pbrSpecularGlossiness"
  ],
  "extensionsUsed": [
    "KHR_materials_pbrSpecularGlossiness"
  ],
  "images": [
    {
      "uri": "textures/Latina_Skin_diffuse.png"
    },
    {
      "uri": "textures/Latina_Skin_specularGlossiness.png"
    },
    {
      "uri": "textures/Uniform_diffuse.png"
    },
    {
      "uri": "textures/Uniform_normal.png"
    },
    {
      "uri": "textures/Uniform_specularGlossiness.png"
    },
    {
      "uri": "textures/Shoes_diffuse.png"
    },
    {
      "uri": "textures/Shoes_normal.png"
    },
    {
      "uri": "textures/Shoes_specularGlossiness.png"
    },
    {
      "uri": "textures/BallTex_diffuse.png"
    },
    {
      "uri": "textures/BallTex_normal.png"
    },
    {
      "uri": "textures/BallTex_specularGlossiness.png"
    },
    {
      "uri": "textures/Brown_Hair_diffuse.png"
    },
    {
      "uri": "textures/Brown_Hair_specularGlossiness.png"
    },
    {
      "uri": "textures/Mouth_diffuse.png"
    },
    {
      "uri": "textures/Mouth_specularGlossiness.png"
    },
    {
      "uri": "textures/Lashes_diffuse.png"
    }
  ],
  "materials": [
    {
      "doubleSided": false,
      "extensions": {
        "KHR_materials_pbrSpecularGlossiness": {
          "diffuseFactor": [
            1,
            1,
            1,
            1
          ],
          "diffuseTexture": {
            "index": 8,
            "texCoord": 0
          },
          "glossinessFactor": 0.59999999999999998,
          "specularFactor": [
            0.5,
            0.5,
            0.5
          ],
          "specularGlossinessTexture": {
            "index": 10,
            "texCoord": 0
          }
        }
      },
      "name": "BallTex",
      "normalTexture": {
        "index": 9,
        "scale": 0.25,
        "texCoord": 0
      }
    },
    {
      "alphaMode": "BLEND",
      "doubleSided": true,
      "extensions": {
        "KHR_materials_pbrSpecularGlossiness": {
          "diffuseFactor": [
            1,
            1,
            1,
            1
          ],
          "diffuseTexture": {
            "index": 11,
            "texCoord": 0
          },
          "glossinessFactor": 0.25,
          "specularFactor": [
            0.050000000000000003,
            0.050000000000000003,
            0.050000000000000003
          ],
          "specularGlossinessTexture": {
            "index": 12,
            "texCoord": 0
          }
        }
      },
      "name": "Brown_Hair"
    },
    {
      "alphaMode": "BLEND",
      "doubleSided": true,
      "extensions": {
        "KHR_materials_pbrSpecularGlossiness": {
          "diffuseFactor": [
            0,
            0,
            0,
            1
          ],
          "diffuseTexture": {
            "index": 15,
            "texCoord": 0
          },
          "glossinessFactor": 0.59999999999999998,
          "specularFactor": [
            0,
            0,
            0
          ]
        }
      },
      "name": "Lashes"
    },
    {
      "doubleSided": false,
      "extensions": {
        "KHR_materials_pbrSpecularGlossiness": {
          "diffuseFactor": [
            1,
            1,
            1,
            1
          ],
          "diffuseTexture": {
            "index": 0,
            "texCoord": 0
          },
          "glossinessFactor": 0.5,
          "specularFactor": [
            0.5,
            0.5,
            0.5
          ],
          "specularGlossinessTexture": {
            "index": 1,
            "texCoord": 0
          }
        }
      },
      "name": "Latina_Skin"
    },
    {
      "doubleSided": false,
      "extensions": {
        "KHR_materials_pbrSpecularGlossiness": {
          "diffuseFactor": [
            1,
            1,
            1,
            1
          ],
          "diffuseTexture": {
            "index": 13,
            "texCoord": 0
          },
          "glossinessFactor": 0.59999999999999998,
          "specularFactor": [
            0.45000000000000001,
            0.45000000000000001,
            0.45000000000000001
          ],
          "specularGlossinessTexture": {
            "index": 14,
            "texCoord": 0
          }
        }
      },
      "name": "Mouth"
    },
    {
      "doubleSided": false,
      "extensions": {
        "KHR_materials_pbrSpecularGlossiness": {
          "diffuseFactor": [
            1,
            1,
            1,
            1
          ],
          "diffuseTexture": {
            "index": 5,
            "texCoord": 0
          },
          "glossinessFactor": 0.5,
          "specularFactor": [
            1,
            1,
            1
          ],
          "specularGlossinessTexture": {
            "index": 7,
            "texCoord": 0
          }
        }
      },
      "name": "Shoes",
      "normalTexture": {
        "index": 6,
        "scale": 0.34999999999999998,
        "texCoord": 0
      }
    },
    {
      "doubleSided": true,
      "extensions": {
        "KHR_materials_pbrSpecularGlossiness": {
          "diffuseFactor": [
            1,
            1,
            1,
            1
          ],
          "diffuseTexture": {
            "index": 2,
            "texCoord": 0
          },
          "glossinessFactor": 0.5,
          "specularFactor": [
            0.050000000000000003,
            0.050000000000000003,
            0.050000000000000003
          ],
          "specularGlossinessTexture": {
            "index": 4,
            "texCoord": 0
          }
        }
      },
      "name": "Uniform",
      "normalTexture": {
        "index": 3,
        "scale": 1,
        "texCoord": 0
      }
    }
  ],
  "meshes": [
    {
      "primitives": [
        {
          "attributes": {
            "NORMAL": 1,
            "POSITION": 0,
            "TANGENT": 2,
            "TEXCOORD_0": 3
          },
          "indices": 4,
          "material": 1,
          "mode": 4
        }
      ]
    },
    {
      "primitives": [
        {
          "attributes": {
            "NORMAL": 6,
            "POSITION": 5,
            "TANGENT": 7,
            "TEXCOORD_0": 8
          },
          "indices": 9,
          "material": 2,
          "mode": 4
        }
      ]
    },
    {
      "primitives": [
        {
          "attributes": {
            "NORMAL": 11,
            "POSITION": 10,
            "TANGENT": 12,
            "TEXCOORD_0": 13
          },
          "indices": 14,
          "material": 0,
          "mode": 4
        }
      ]
    },
    {
      "primitives": [
        {
          "attributes": {
            "NORMAL": 16,
            "POSITION": 15,
            "TANGENT": 17,
            "TEXCOORD_0": 18
          },
          "indices": 19,
          "material": 3,
          "mode": 4
        }
      ]
    },
    {
      "primitives": [
        {
          "attributes": {
            "NORMAL": 21,
            "POSITION": 20,
            "TANGENT": 22,
            "TEXCOORD_0": 23
          },
          "indices": 24,
          "material": 4,
          "mode": 4
        }
      ]
    },
    {
      "primitives": [
        {
          "attributes": {
            "NORMAL": 26,
            "POSITION": 25,
            "TANGENT": 27,
            "TEXCOORD_0": 28
          },
          "indices": 29,
          "material": 5,
          "mode": 4
        }
      ]
    },
    {
      "primitives": [
        {
          "attributes": {
            "NORMAL": 31,
            "POSITION": 30,
            "TANGENT": 32,
            "TEXCOORD_0": 33
          },
          "indices": 34,
          "material": 6,
          "mode": 4
        }
      ]
    }
  ],
  "nodes": [
    {
      "children": [
        1
      ],
      "name": "RootNode (gltf orientation matrix)",
      "rotation": [
        -0.70710678118654746,
        -0,
        -0,
        0.70710678118654757
      ]
    },
    {
      "children": [
        2
      ],
      "name": "RootNode (model correction matrix)"
    },
    {
      "children": [
        3,
        4,
        5,
        6,
        7,
        8,
        9
      ],
      "name": "Volleyball.obj.cleaner.materialmerger.gles"
    },
    {
      "mesh": 0,
      "name": ""
    },
    {
      "mesh": 1,
      "name": ""
    },
    {
      "mesh": 2,
      "name": ""
    },
    {
      "mesh": 3,
      "name": ""
    },
    {
      "mesh": 4,
      "name": ""
    },
    {
      "mesh": 5,
      "name": ""
    },
    {
      "mesh": 6,
      "name": ""
    }
  ],
  "samplers": [
    {
      "magFilter": 9729,
      "minFilter": 9987,
      "wrapS": 10497,
      "wrapT": 10497
    }
  ],
  "scene": 0,
  "scenes": [
    {
      "name": "OSG_Scene",
      "nodes": [
        0
      ]
    }
  ],
  "textures": [
    {
      "sampler": 0,
      "source": 0
    },
    {
      "sampler": 0,
      "source": 1
    },
    {
      "sampler": 0,
      "source": 2
    },
    {
      "sampler": 0,
      "source": 3
    },
    {
      "sampler": 0,
      "source": 4
    },
    {
      "sampler": 0,
      "source": 5
    },
    {
      "sampler": 0,
      "source": 6
    },
    {
      "sampler": 0,
      "source": 7
    },
    {
      "sampler": 0,
      "source": 8
    },
    {
      "sampler": 0,
      "source": 9
    },
    {
      "sampler": 0,
      "source": 10
    },
    {
      "sampler": 0,
      "source": 11
    },
    {
      "sampler": 0,
      "source": 12
    },
    {
      "sampler": 0,
      "source": 13
    },
    {
      "sampler": 0,
      "source": 14
    },
    {
      "sampler": 0,
      "source": 15
    }
  ]
}

