{
  "accessors": [
    {
      "bufferView": 2,
      "componentType": 5126,
      "count": 1012,
      "max": [
        1.3019520044326782,
        1.3019518852233887,
        1.3019517660140991
      ],
      "min": [
        -1.3019517660140991,
        -1.3019518852233887,
        -1.3019520044326782
      ],
      "type": "VEC3"
    },
    {
      "bufferView": 2,
      "byteOffset": 12144,
      "componentType": 5126,
      "count": 1012,
      "max": [
        1,
        1,
        1
      ],
      "min": [
        -1,
        -1,
        -1
      ],
      "type": "VEC3"
    },
    {
      "bufferView": 1,
      "componentType": 5126,
      "count": 1012,
      "max": [
        0.75,
        0.87500035762786865
      ],
      "min": [
        0.49999964237213135,
        0.6249997615814209
      ],
      "type": "VEC2"
    },
    {
      "bufferView": 0,
      "componentType": 5125,
      "count": 3864,
      "max": [
        1011
      ],
      "min": [
        0
      ],
      "type": "SCALAR"
    },
    {
      "bufferView": 2,
      "byteOffset": 24288,
      "componentType": 5126,
      "count": 904,
      "max": [
        1.2296093702316284,
        0.9155152440071106,
        1.2296092510223389
      ],
      "min": [
        -1.2296092510223389,
        -0.9155152440071106,
        -1.2296093702316284
      ],
      "type": "VEC3"
    },
    {
      "bufferView": 2,
      "byteOffset": 35136,
      "componentType": 5126,
      "count": 904,
      "max": [
        0.95261216163635254,
        0.99999988079071045,
        0.99999988079071045
      ],
      "min": [
        -0.95261216163635254,
        -0.99999988079071045,
        -0.99999988079071045
      ],
      "type": "VEC3"
    },
    {
      "bufferView": 1,
      "byteOffset": 8096,
      "componentType": 5126,
      "count": 904,
      "max": [
        0.62740623950958252,
        0.87500113248825073
      ],
      "min": [
        0.49999880790710449,
        0.66729068756103516
      ],
      "type": "VEC2"
    },
    {
      "bufferView": 0,
      "byteOffset": 15456,
      "componentType": 5125,
      "count": 3840,
      "max": [
        903
      ],
      "min": [
        0
      ],
      "type": "SCALAR"
    },
    {
      "bufferView": 2,
      "byteOffset": 45984,
      "componentType": 5126,
      "count": 532,
      "max": [
        0.91551518440246582,
        1.2296092510223389,
        0.88691353797912598
      ],
      "min": [
        -0.91551506519317627,
        -1.2296092510223389,
        -0.8869137167930603
      ],
      "type": "VEC3"
    },
    {
      "bufferView": 2,
      "byteOffset": 52368,
      "componentType": 5126,
      "count": 532,
      "max": [
        0.99999988079071045,
        0.94923734664916992,
        0.95261204242706299
      ],
      "min": [
        -0.99999988079071045,
        -0.94923734664916992,
        -0.95261204242706299
      ],
      "type": "VEC3"
    },
    {
      "bufferView": 1,
      "byteOffset": 15328,
      "componentType": 5126,
      "count": 532,
      "max": [
        0.70770931243896484,
        0.83012157678604126
      ],
      "min": [
        0.62202489376068115,
        0.62499886751174927
      ],
      "type": "VEC2"
    },
    {
      "bufferView": 0,
      "byteOffset": 30816,
      "componentType": 5125,
      "count": 1896,
      "max": [
        531
      ],
      "min": [
        0
      ],
      "type": "SCALAR"
    }
  ],
  "asset": {
    "extras": {
      "author": "PatelDev (https://sketchfab.com/PatelDev)",
      "license": "CC-BY-4.0 (http://creativecommons.org/licenses/by/4.0/)",
      "source": "https://sketchfab.com/3d-models/volleyball-5ebd04ad8a9647e999c04ae92dd2fe13",
      "title": "Volleyball"
    },
    "generator": "Sketchfab-9.55.1",
    "version": "2.0"
  },
  "bufferViews": [
    {
      "buffer": 0,
      "byteLength": 38400,
      "byteOffset": 0,
      "name": "floatBufferViews",
      "target": 34963
    },
    {
      "buffer": 0,
      "byteLength": 19584,
      "byteOffset": 38400,
      "byteStride": 8,
      "name": "floatBufferViews",
      "target": 34962
    },
    {
      "buffer": 0,
      "byteLength": 58752,
      "byteOffset": 57984,
      "byteStride": 12,
      "name": "floatBufferViews",
      "target": 34962
    }
  ],
  "buffers": [
    {
      "byteLength": 116736,
      "uri": "scene.bin"
    }
  ],
  "materials": [
    {
      "doubleSided": true,
      "emissiveFactor": [
        0,
        0,
        0
      ],
      "name": "Material.001",
      "pbrMetallicRoughness": {
        "baseColorFactor": [
          0.79910300000000001,
          0.34670399999999996,
          0.0065121199999999988,
          1
        ],
        "metallicFactor": 0,
        "roughnessFactor": 0.30000000000000004
      }
    },
    {
      "doubleSided": true,
      "emissiveFactor": [
        0,
        0,
        0
      ],
      "name": "Material.002",
      "pbrMetallicRoughness": {
        "baseColorFactor": [
          0.009721129999999998,
          0.33245199999999997,
          0.79910300000000001,
          1
        ],
        "metallicFactor": 0,
        "roughnessFactor": 0.30000000000000004
      }
    },
    {
      "doubleSided": true,
      "emissiveFactor": [
        0,
        0,
        0
      ],
      "name": "Material.003",
      "pbrMetallicRoughness": {
        "baseColorFactor": [
          0.80000000000000004,
          0.80000000000000004,
          0.80000000000000004,
          1
        ],
        "metallicFactor": 0,
        "roughnessFactor": 0.30000000000000004
      }
    }
  ],
  "meshes": [
    {
      "primitives": [
        {
          "attributes": {
            "NORMAL": 1,
            "POSITION": 0,
            "TEXCOORD_0": 2
          },
          "indices": 3,
          "material": 0,
          "mode": 4
        }
      ]
    },
    {
      "primitives": [
        {
          "attributes": {
            "NORMAL": 5,
            "POSITION": 4,
            "TEXCOORD_0": 6
          },
          "indices": 7,
          "material": 1,
          "mode": 4
        }
      ]
    },
    {
      "primitives": [
        {
          "attributes": {
            "NORMAL": 9,
            "POSITION": 8,
            "TEXCOORD_0": 10
          },
          "indices": 11,
          "material": 2,
          "mode": 4
        }
      ]
    }
  ],
  "nodes": [
    {
      "children": [
        1
      ],
      "name": "RootNode (gltf orientation matrix)",
      "rotation": [
        -0.70710678118654746,
        -0,
        -0,
        0.70710678118654757
      ]
    },
    {
      "children": [
        2
      ],
      "name": "RootNode (model correction matrix)"
    },
    {
      "children": [
        3
      ],
      "name": "root"
    },
    {
      "children": [
        4
      ],
      "matrix": [
        1,
        0,
        0,
        0,
        0,
        2.2204460492503131e-16,
        1,
        0,
        0,
        -1,
        2.2204460492503131e-16,
        0,
        0,
        0,
        0,
        1
      ],
      "name": "GLTF_SceneRootNode"
    },
    {
      "children": [
        5,
        6,
        7
      ],
      "name": "Cube_2"
    },
    {
      "mesh": 0,
      "name": ""
    },
    {
      "mesh": 1,
      "name": ""
    },
    {
      "mesh": 2,
      "name": ""
    }
  ],
  "scene": 0,
  "scenes": [
    {
      "name": "OSG_Scene",
      "nodes": [
        0
      ]
    }
  ]
}

