{
    "asset" : {
        "generator" : "Khronos glTF Blender I/O v1.5.17",
        "version" : "2.0"
    },
    "scene" : 0,
    "scenes" : [
        {
            "name" : "Scene",
            "nodes" : [
                5,
                6
            ]
        }
    ],
    "nodes" : [
        {
            "mesh" : 0,
            "name" : "03_person.003_03_person_0"
        },
        {
            "children" : [
                0
            ],
            "name" : "03_person.003",
            "rotation" : [
                -0.6557737588882446,
                0,
                0,
                0.7549574971199036
            ],
            "scale" : [
                100,
                100.00000762939453,
                100.00000762939453
            ],
            "translation" : [
                -25.456323623657227,
                0,
                50
            ]
        },
        {
            "children" : [
                1
            ],
            "name" : "RootNode"
        },
        {
            "children" : [
                2
            ],
            "name" : "ea8dc923b3ee4a23b04198ca547fe3da.fbx",
            "rotation" : [
                0.7071068286895752,
                0,
                0,
                0.7071068286895752
            ]
        },
        {
            "children" : [
                3
            ],
            "name" : "RootNode (model correction matrix)"
        },
        {
            "children" : [
                4
            ],
            "name" : "RootNode (gltf orientation matrix)",
            "rotation" : [
                -0.7071068286895752,
                0,
                0,
                0.7071068286895752
            ]
        },
        {
            "name" : "Light",
            "rotation" : [
                0.16907575726509094,
                0.7558803558349609,
                -0.27217137813568115,
                0.570947527885437
            ],
            "translation" : [
                4.076245307922363,
                5.903861999511719,
                -1.0054539442062378
            ]
        }
    ],
    "materials" : [
        {
            "doubleSided" : true,
            "name" : "03_person",
            "normalTexture" : {
                "index" : 0
            },
            "pbrMetallicRoughness" : {
                "baseColorTexture" : {
                    "index" : 1
                },
                "metallicFactor" : 0
            }
        }
    ],
    "meshes" : [
        {
            "name" : "03_person.003_03_person_0",
            "primitives" : [
                {
                    "attributes" : {
                        "POSITION" : 0,
                        "NORMAL" : 1,
                        "TEXCOORD_0" : 2
                    },
                    "indices" : 3,
                    "material" : 0
                }
            ]
        }
    ],
    "textures" : [
        {
            "sampler" : 0,
            "source" : 0
        },
        {
            "sampler" : 0,
            "source" : 1
        }
    ],
    "images" : [
        {
            "bufferView" : 4,
            "mimeType" : "image/jpeg",
            "name" : "03_person_normal"
        },
        {
            "bufferView" : 5,
            "mimeType" : "image/jpeg",
            "name" : "03_person_baseColor"
        }
    ],
    "accessors" : [
        {
            "bufferView" : 0,
            "componentType" : 5126,
            "count" : 1507,
            "max" : [
                0.15753580629825592,
                0.25004568696022034,
                0.9872767329216003
            ],
            "min" : [
                -0.18393062055110931,
                -0.08417107164859772,
                -0.011509384959936142
            ],
            "type" : "VEC3"
        },
        {
            "bufferView" : 1,
            "componentType" : 5126,
            "count" : 1507,
            "type" : "VEC3"
        },
        {
            "bufferView" : 2,
            "componentType" : 5126,
            "count" : 1507,
            "type" : "VEC2"
        },
        {
            "bufferView" : 3,
            "componentType" : 5123,
            "count" : 4500,
            "type" : "SCALAR"
        }
    ],
    "bufferViews" : [
        {
            "buffer" : 0,
            "byteLength" : 18084,
            "byteOffset" : 0
        },
        {
            "buffer" : 0,
            "byteLength" : 18084,
            "byteOffset" : 18084
        },
        {
            "buffer" : 0,
            "byteLength" : 12056,
            "byteOffset" : 36168
        },
        {
            "buffer" : 0,
            "byteLength" : 9000,
            "byteOffset" : 48224
        },
        {
            "buffer" : 0,
            "byteLength" : 1117710,
            "byteOffset" : 57224
        },
        {
            "buffer" : 0,
            "byteLength" : 564098,
            "byteOffset" : 1174936
        }
    ],
    "samplers" : [
        {
            "magFilter" : 9729,
            "minFilter" : 9987
        }
    ],
    "buffers" : [
        {
            "byteLength" : 1739036,
            "uri" : "data:application/octet-stream;base64,"
        }
    ]
}
